<?xml version="1.0" standalone="no"?>
<!DOCTYPE svg PUBLIC "-//W3C//DTD SVG 20010904//EN"
 "http://www.w3.org/TR/2001/REC-SVG-20010904/DTD/svg10.dtd">
<svg version="1.0" xmlns="http://www.w3.org/2000/svg"
 width="1280.000000pt" height="678.000000pt" viewBox="0 0 1280.000000 678.000000"
 preserveAspectRatio="xMidYMid meet">
<metadata>
Created by potrace 1.15, written by Peter Selinger 2001-2017
</metadata>
<g transform="translate(0.000000,678.000000) scale(0.100000,-0.100000)"
fill="#000000" stroke="none">
<path d="M9973 6765 c-15 -10 -23 -27 -23 -45 0 -15 52 -342 115 -725 63 -383
115 -701 115 -706 0 -5 -37 -9 -82 -9 -46 0 -89 -4 -96 -9 -9 -5 -12 -28 -10
-77 l3 -69 58 -3 c40 -2 57 -7 54 -15 -2 -8 -33 -13 -85 -15 l-82 -3 0 131 c0
149 -11 190 -59 215 -27 14 -76 15 -377 13 l-346 -3 -29 -33 -30 -34 3 -209 3
-209 -37 0 -38 0 -2 578 -3 577 -25 48 c-33 65 -95 120 -165 146 -54 20 -74
22 -239 19 -165 -3 -185 -5 -227 -26 -64 -31 -117 -85 -148 -151 l-26 -56 -3
-567 -3 -568 -190 0 -189 0 0 188 c0 175 -2 191 -22 232 -14 26 -37 53 -58 65
-33 19 -52 20 -422 20 -375 0 -387 -1 -414 -21 -67 -50 -69 -56 -72 -280 l-3
-204 -134 0 -135 0 -2 168 -3 167 -457 3 -458 2 0 -170 0 -170 -60 0 -60 0 0
75 0 75 -55 0 -55 0 0 35 c0 51 -19 85 -52 92 l-28 6 0 531 c0 401 -3 535 -12
544 -16 16 -120 16 -136 0 -9 -9 -12 -144 -12 -545 0 -511 -1 -533 -18 -533
-32 0 -52 -33 -52 -83 l0 -47 -807 0 -808 0 4 87 c7 192 -33 1260 -49 1276 -4
5 -361 -17 -791 -48 l-784 -56 -597 -332 -598 -332 0 -1702 0 -1703 65 0 65 0
0 -45 0 -45 -75 0 -76 0 3 -88 3 -87 72 -3 73 -3 0 -279 0 -280 76 0 76 0 -6
-27 c-33 -159 -33 -381 2 -508 70 -259 226 -481 435 -619 132 -87 230 -128
378 -161 56 -12 -44 -14 -843 -14 l-908 -1 0 -70 0 -70 6400 0 6400 0 0 70 0
70 -1162 1 c-1123 0 -1161 1 -1103 18 87 25 149 55 220 105 179 128 281 319
292 549 l6 107 298 0 299 0 0 95 0 95 210 0 210 0 0 48 0 47 80 0 80 0 0 -85
0 -85 71 -108 c38 -59 74 -105 79 -102 14 9 13 815 0 815 -6 0 -42 -48 -80
-107 -66 -101 -70 -110 -70 -165 l0 -58 -80 0 -79 0 -3 82 -3 83 -207 3 -208
2 0 35 0 35 -385 0 -385 0 0 35 0 35 300 0 301 0 -3 77 c-3 75 -4 78 -28 81
-21 2 -46 37 -147 200 l-123 197 0 122 0 122 -82 4 -83 3 92 2 c101 2 113 9
113 70 0 20 7 32 25 42 26 14 75 78 75 98 0 7 7 12 15 12 8 0 24 9 35 20 20
20 20 33 20 1070 0 1037 0 1050 -20 1070 -11 11 -26 20 -34 20 -8 0 -24 16
-36 35 -12 19 -35 43 -51 52 -27 16 -29 21 -29 79 0 83 -13 94 -113 94 -92 0
-107 -11 -107 -77 0 -44 -1 -45 -18 -30 -32 29 -90 47 -150 47 -43 0 -63 5
-73 17 -18 20 -71 43 -103 43 -13 0 -26 7 -30 15 -4 12 5 15 47 15 29 0 58 5
65 12 16 16 16 120 0 136 -7 7 -39 12 -75 12 -60 0 -63 1 -59 23 3 12 12 85
21 162 45 400 100 785 140 990 46 233 49 281 18 306 -12 11 -97 15 -402 17
-344 3 -388 2 -408 -13z m-6559 -412 c4 -54 8 -124 11 -155 3 -32 1 -58 -3
-58 -4 0 -604 -94 -1334 -208 -731 -114 -1325 -205 -1320 -201 4 3 252 142
551 308 l544 302 416 30 c229 17 553 41 721 53 168 13 328 24 357 25 l51 1 6
-97z m20 -470 c3 -126 8 -258 10 -295 l5 -68 -1380 0 -1379 0 0 83 0 82 1348
211 c741 117 1357 212 1368 213 21 1 22 -2 28 -226z m2156 -3418 c0 -33 2 -35
34 -35 31 0 34 3 40 35 l7 35 190 0 190 0 -3 -47 -3 -48 -1195 -3 -1195 -2
-20 -38 -20 -37 -68 0 -69 0 -1 88 -2 87 1058 0 1057 0 0 -35z m1320 -15 l0
-50 -370 0 -370 0 0 50 0 50 370 0 370 0 0 -50z m1380 -40 l0 -90 -542 0 -541
0 -79 46 -78 46 0 44 0 44 620 0 620 0 0 -90z m946 65 c35 -18 62 -25 105 -25
50 0 59 -3 59 -18 0 -36 20 -42 142 -42 l118 0 0 -35 0 -35 -617 2 -616 3 -4
88 -5 87 386 0 385 0 47 -25z m1764 10 c0 -8 -2 -15 -4 -15 -2 0 -6 7 -10 15
-3 8 -1 15 4 15 6 0 10 -7 10 -15z m-122 -52 c2 -9 -9 -13 -37 -13 -39 0 -50
8 -34 24 11 11 66 2 71 -11z m366 -605 l28 -48 -46 0 -46 0 0 78 0 77 18 -30
c10 -16 31 -51 46 -77z m-9652 -446 c94 -77 106 -90 101 -112 -3 -14 -9 -28
-12 -33 -4 -4 -149 -6 -322 -5 l-314 3 3 40 c1 22 10 75 19 118 l16 77 201 0
201 -1 107 -87z m253 66 c-22 -11 -47 -27 -56 -34 -14 -12 -21 -10 -52 13 -20
16 -36 31 -37 36 0 4 42 7 93 7 l92 -1 -40 -21z m1018 -45 c9 -38 18 -92 22
-120 l7 -53 -320 0 -320 0 -12 38 c-7 20 -19 47 -27 60 -13 22 -11 27 34 82
l48 60 277 0 276 0 15 -67z m317 60 c0 -5 -7 -44 -15 -88 -47 -262 12 -545
164 -775 56 -86 197 -226 286 -285 130 -86 228 -127 376 -160 56 -12 -55 -13
-906 -13 -852 0 -962 1 -906 13 400 87 696 368 812 770 36 122 37 398 3 523
-6 22 -5 22 90 22 53 0 96 -3 96 -7z m650 -80 c58 -47 105 -92 104 -100 -3
-58 28 -53 -324 -53 l-320 0 0 38 c0 43 17 143 31 178 l9 24 197 0 198 0 105
-87z m280 83 c0 -1 -22 -17 -49 -34 l-50 -30 -38 33 -38 34 88 1 c48 0 87 -2
87 -4z m988 -33 c12 -40 32 -156 32 -185 0 -17 -22 -18 -318 -18 l-318 0 -25
64 -25 64 49 56 49 56 272 0 273 0 11 -37z m322 27 c0 -5 -7 -52 -16 -102 -35
-198 0 -438 90 -623 145 -298 414 -509 737 -580 56 -12 -55 -13 -901 -13 -531
0 -956 2 -945 5 205 43 364 118 507 238 258 218 402 570 368 903 -6 54 -15
114 -20 133 -6 18 -10 37 -10 41 0 5 43 8 95 8 57 0 95 -4 95 -10z m652 -76
c56 -48 103 -93 102 -100 -3 -59 28 -54 -324 -54 l-320 0 0 35 c0 35 27 183
36 197 3 5 95 8 204 8 l198 0 104 -86z m283 76 c-3 -5 -12 -10 -18 -10 -7 0
-28 -11 -48 -24 l-35 -24 -40 34 -39 33 93 1 c60 0 91 -4 87 -10z m1425 -44
l0 -54 -62 14 c-35 9 -101 24 -148 35 -76 18 -99 30 -100 52 0 4 70 7 155 7
l155 0 0 -54z m-704 -21 c153 -36 282 -71 286 -78 4 -6 8 -29 8 -49 l0 -38
-318 0 -319 0 -10 33 c-6 17 -17 46 -24 63 -12 31 -11 34 30 83 24 28 49 51
56 51 7 0 138 -29 291 -65z m561 -130 c59 -14 116 -28 126 -31 16 -5 17 -27
17 -269 l0 -264 43 -6 c23 -3 326 -5 672 -3 l630 3 3 113 3 112 259 0 260 0 0
-85 c0 -314 191 -573 495 -671 l70 -23 -1805 0 c-1568 1 -1796 2 -1740 15 196
42 413 163 545 305 113 121 212 295 254 447 26 94 45 260 38 329 -4 40 -2 53
8 53 7 0 62 -11 122 -25z m-5929 -198 c-2 -7 -95 -124 -208 -260 -233 -281
-204 -266 -286 -150 -60 84 -120 213 -144 314 -11 46 -20 90 -20 97 0 9 73 12
331 12 265 0 330 -3 327 -13z m1172 -5 c0 -35 -39 -173 -67 -235 -33 -76 -101
-187 -114 -187 -5 0 -116 88 -247 197 -130 108 -238 197 -240 199 -2 1 1 12 8
23 11 21 16 21 335 21 309 0 325 -1 325 -18z m1070 7 c0 -17 -412 -509 -421
-503 -20 12 -102 129 -138 196 -40 75 -83 201 -95 276 l-6 42 330 0 c226 0
330 -3 330 -11z m1166 -39 c-8 -57 -49 -186 -79 -245 -31 -63 -86 -145 -96
-145 -7 0 -217 170 -464 376 -23 20 -26 27 -17 44 10 19 20 20 337 20 l326 0
-7 -50z m1072 35 c-2 -8 -95 -125 -207 -260 -234 -284 -203 -270 -297 -129
-75 112 -123 234 -148 372 l-5 32 330 0 c285 0 330 -2 327 -15z m1171 -32
c-23 -123 -73 -249 -142 -355 l-31 -47 -46 37 c-25 20 -136 112 -248 205 -180
150 -201 170 -192 187 10 19 23 20 339 20 l328 0 -8 -47z m-4946 -332 c108
-90 197 -167 197 -170 -1 -11 -110 -96 -173 -134 -82 -49 -197 -93 -298 -112
-45 -8 -83 -15 -85 -15 -2 0 -4 145 -4 323 l0 323 33 16 c32 15 32 15 82 -26
28 -23 139 -116 248 -205z m2205 29 c128 -105 232 -196 230 -201 -2 -4 -34
-33 -73 -64 -117 -93 -292 -168 -442 -189 l-43 -6 0 323 0 323 33 16 c26 13
35 13 47 3 8 -6 120 -99 248 -205z m2240 2 l243 -201 -73 -58 c-128 -102 -318
-184 -448 -194 l-45 -4 -3 321 -2 320 32 16 c18 9 38 12 43 8 6 -4 119 -97
253 -208z m-4994 192 c14 -5 16 -44 16 -331 l0 -324 -37 6 c-133 23 -269 71
-355 127 -44 27 -47 33 -36 49 13 17 391 477 395 478 1 1 8 -2 17 -5z m2256
-331 l0 -324 -37 6 c-132 23 -255 67 -356 128 -41 25 -46 31 -35 45 7 9 100
121 206 249 132 158 198 230 207 226 13 -4 15 -55 15 -330z m2238 4 l2 -327
-42 6 c-89 14 -216 57 -301 102 -49 26 -89 51 -89 56 -1 15 405 497 416 493 8
-3 12 -108 14 -330z m3792 313 c11 -6 17 -17 14 -25 -5 -12 -32 -15 -150 -15
-133 0 -144 1 -144 18 0 10 3 22 7 25 10 11 252 8 273 -3z m672 -15 l5 -26
-145 3 c-140 3 -145 4 -153 26 l-8 22 148 0 149 0 4 -25z m-744 -266 l-92
-110 -19 23 c-23 28 -74 133 -83 171 l-6 27 146 0 147 0 -93 -111z m728 69
c-17 -55 -48 -118 -57 -118 -4 0 -51 36 -105 80 l-96 80 135 0 136 0 -13 -42z
m-196 -167 c30 -25 57 -47 60 -49 18 -13 -159 -106 -222 -118 l-38 -6 0 145
c0 128 2 147 17 156 14 7 29 0 73 -37 30 -25 80 -67 110 -91z m-320 -28 l0
-145 -37 7 c-47 8 -133 41 -157 60 -17 13 -13 20 73 124 62 74 97 108 106 104
12 -4 15 -32 15 -150z"/>
<path d="M11420 5860 c-10 -19 -21 -20 -256 -20 -368 0 -353 15 -354 -368 0
-273 3 -295 54 -342 l28 -25 256 -3 c239 -3 258 -4 275 -22 25 -28 112 -28
127 -1 6 13 10 154 10 391 0 237 -4 378 -10 391 -16 28 -115 28 -130 -1z"/>
</g>
</svg>
